# xmcd
#
# Track frame offsets:
#	150
#	11722
#	25967
#	41127
#	53115
#	64097
#	78152
#	88740
#	102135
#	115962
#	129737
#	142255
#	154807
#	167132
#	181892
#	195302
#	209072
#	221150
#	233720
#	244812
#	256237
#	268867
#	282240
#	295735
#	304317
#
# Disc length: 4240 seconds
#
# Revision: 0
# Processed by: cddbd v1.5.2PL0 Copyright (c) Steve Scherf et al.
# Submitted via: EasyCDDAExtractor 10.0.6.1
#
DISCID=7b108e19
DTITLE=Various Artist - Les 100 Plus Beaux Gospels-CD4
DYEAR=2000
DGENRE=Gospel
TTITLE0=Louis Armstrong and The Lyn Murray Choir - Shadrack
TTITLE1=Louis Armstrong and The Lyn Murray Choir - Nobody Knows the Trouble I've
TTITLE1=Seen
TTITLE2=Mahalia Jackson - In My Home Over There
TTITLE3=Mahalia Jackson - There's Not a Friend Like Jesus
TTITLE4=Arizona Dranes - My Soul is a Witness
TTITLE5=Reverend J.M. Gates - The Need of Prayer
TTITLE6=Mitchell's Christian Singers - Traveling Shoes
TTITLE7=Arizona Dranes - God's Got a Crown
TTITLE8=Josh White - Jesus Gonna Make Up My Dying Bed
TTITLE9=Blind Gary Davis - Lord, I wish I Could See
TTITLE10=The Blue Chips - Crying Holy Unto the Lord
TTITLE11=Blind Boy Fuller - Precious Lord
TTITLE12=Golden Eagle Gospels Singers - He's My Rock
TTITLE13=Georgia Peach and Her Gospel Singers - Jesus Knows How Much We Can Bear
TTITLE14=Reverend Utah Smith - I Want Two Wings
TTITLE15=Birmingham Jubilee Singers - He Took My Sins Away
TTITLE16=Reverend F.W. McGhee - Fifty Miles of Elbow Room
TTITLE17=Reverend B.C. Campbell - I'll Fly Away
TTITLE18=Mitchell's Christian Singers - Who Was John?
TTITLE19=Brownie McGhee - Done What My Lord Said
TTITLE20=Bessie Johnson and Memphis Sanctified Singers - He Got Better Things Fo
TTITLE20=r You
TTITLE21=Chicago Sanctified Singers - Tell Me What Kind of Man Jesus Is
TTITLE22=Southern Sons - I'm Free at Last
TTITLE23=Golden Gate Quartet - Pure Religion
TTITLE24=Delta Boys - When The Saints Go Marching In
EXTD=
EXTT0=
EXTT1=
EXTT2=
EXTT3=
EXTT4=
EXTT5=
EXTT6=
EXTT7=
EXTT8=
EXTT9=
EXTT10=
EXTT11=
EXTT12=
EXTT13=
EXTT14=
EXTT15=
EXTT16=
EXTT17=
EXTT18=
EXTT19=
EXTT20=
EXTT21=
EXTT22=
EXTT23=
EXTT24=
PLAYORDER=
